<svg width="32" height="32" viewBox="0 0 42 42" fill="none" xmlns="http://www.w3.org/2000/svg">
<path d="M18.6874 41.9099L16.0011 41.4427C15.9737 41.3862 15.9869 41.3025 15.9863 41.2392L16.0066 29.4035L5.76102 35.8498C5.62114 35.6127 5.44225 35.3952 5.27856 35.1741L4.37824 33.999C4.11904 33.6735 3.85094 33.3578 3.61243 33.0166L12.0877 24.5245C11.7253 24.4359 11.364 24.2319 11.0271 24.0711L5.35573 21.3983L1.42132 19.7111C0.953216 19.5239 0.496086 19.3378 0.00762072 19.2103L0.585805 15.7955L13.0618 16.5917L11.0553 10.9149L9.01394 5.53252C8.82655 5.05229 8.64338 4.54832 8.35638 4.11797L11.4147 2.23492C11.6175 2.52124 11.855 2.78343 12.079 3.05328L19.1895 11.5167C19.284 11.6328 19.3934 11.7077 19.4531 11.848L19.4628 11.8717C19.647 10.9328 19.9554 10.0181 20.2139 9.09721L23.0576 0.0464572L26.1898 0.625486L25.4784 12.9263C25.7783 12.7159 26.2623 12.4624 26.5969 12.2605L36.3675 6.49746L38.4998 9.28434L30.0141 19.4862L41.955 22.9326C41.939 23.2616 41.8444 23.6187 41.7888 23.9447L41.4039 26.2337C40.4707 26.1957 39.5175 26.3386 38.5854 26.4091L31.948 27.0106C30.7686 27.1213 29.5773 27.2882 28.3917 27.2937L33.5069 38.2109C33.0283 38.4268 32.5971 38.7131 32.1545 38.9931L30.5751 40.0105L22.9519 30.7286L19.0691 41.9733L18.6874 41.9099Z" fill="#2B7FFE"/>
</svg>
