<svg width="512" height="512" viewBox="0 0 512 512" fill="none" xmlns="http://www.w3.org/2000/svg">
<path d="M342.225 245.84C337.89 252.01 333.306 258.249 328.125 263.74C290.498 303.618 224.942 304.494 185.812 265.707C177.106 257.076 170.771 246.405 163.465 236.641C139.292 204.331 97.9465 169.254 56.5102 167.293L26.9738 167.233C26.3346 167.235 25.4801 167.38 24.9369 167.068L24.7935 136.295C25.0553 83.4608 68.7624 39.2212 121.61 39.5076L382.061 39.4872C388.115 39.4819 394.402 39.1343 400.422 39.7829C446.199 44.715 484.082 82.7149 487.192 129.1C487.489 133.541 487.295 138.113 487.293 142.566L487.272 167.192C459.316 167.747 446.559 165.081 420.236 177.004C387.611 191.782 362.642 217.075 342.225 245.84ZM122.028 87.7934C100.852 89.0827 84.8339 99.9879 75.4798 119.379C107.668 124.049 141.849 145.364 165.553 166.333L182.517 182.771C191.386 191.817 199.901 201.156 207.498 211.314C210.975 215.962 213.986 220.96 217.638 225.474C234.498 246.311 263.84 249.952 285.335 233.869C295.628 226.167 301.874 214.711 309.645 204.716C315.623 197.027 322.117 190.025 328.917 183.069C356.343 155.856 396.509 124.531 436.331 119.252C428.08 102.518 413.412 89.8024 394.5 87.9959C390.075 87.5732 385.484 87.7642 381.038 87.7611L122.028 87.7934Z" fill="#2BB9FE"/>
<path d="M250.247 468.95L228.042 467.693C221.41 467.121 214.679 465.944 208.152 464.644L200.642 463.05C197.63 462.381 198.402 461.574 197.33 458.646L186.368 425.538C168.641 367.644 134.468 289.158 71.4012 269.35C62.5341 266.565 53.3729 266.052 44.1579 266.028L26.2474 266.126C25.6512 264.105 25.8132 261.552 25.6475 259.433L24.8878 214.024C30.5377 213.923 36.329 214.23 41.9412 214.237C63.917 214.263 71.9928 214.797 93.5422 223.662C128.992 238.246 160.517 267.049 181.986 298.427C205.017 332.087 219.151 371.898 231.735 410.342L245.142 454.22C246.756 459.146 248.248 464.165 250.247 468.95Z" fill="#2BB9FE"/>
<path d="M293.109 466.676C287.889 467.688 263.354 468.932 261.943 468.002C262.84 466.895 263.109 464.873 263.566 463.485L276.069 422.985C296.936 355.904 321.568 290.181 379.363 246.665C401.486 230.008 426.932 216.358 454.948 214.352L487.289 214.249L486.739 266.178L471.693 265.995C466.979 265.996 462.184 265.849 457.486 266.22C395.928 271.089 355.375 343.12 336.013 395.174L313.155 462.583C311.343 463.362 308.456 463.535 306.488 463.932L293.109 466.676Z" fill="#2BB9FE"/>
<path d="M149.856 444.719C147.49 444.043 145.202 442.789 143.01 441.674C101.809 420.704 67.4664 381.521 48.8033 339.734C45.0307 331.287 41.2315 322.802 39.3398 313.697C42.7888 314.232 46.3279 314.014 49.7699 314.495C90.7064 320.22 119.284 359.829 134.168 395.198L146.891 431.995C148.139 436.174 149.4 440.37 149.856 444.719Z" fill="#2BB9FE"/>
<path d="M364.856 443.614L361.801 445.011L365.825 428.855C377.772 387.458 406.621 328.35 452.778 316.59C458.256 315.194 463.745 314.735 469.358 314.343L473.162 314.218L471.891 319.059C454.978 373.593 414.786 417.289 364.856 443.614Z" fill="#2BB9FE"/>
</svg>
